<?xml version="1.0" encoding="UTF-8" standalone="no"?>
<!-- Created with Inkscape (http://www.inkscape.org/) -->

<svg
   width="96.519997mm"
   height="128.5mm"
   viewBox="0 0 96.519998 128.5"
   version="1.1"
   id="svg1"
   inkscape:version="1.3.2 (091e20e, 2023-11-25)"
   sodipodi:docname="ORBsqViPanel.svg"
   xml:space="preserve"
   xmlns:inkscape="http://www.inkscape.org/namespaces/inkscape"
   xmlns:sodipodi="http://sodipodi.sourceforge.net/DTD/sodipodi-0.dtd"
   xmlns="http://www.w3.org/2000/svg"
   xmlns:svg="http://www.w3.org/2000/svg"><sodipodi:namedview
     id="namedview1"
     pagecolor="#ffffff"
     bordercolor="#666666"
     borderopacity="1.0"
     inkscape:showpageshadow="2"
     inkscape:pageopacity="0.0"
     inkscape:pagecheckerboard="0"
     inkscape:deskcolor="#d1d1d1"
     inkscape:document-units="mm"
     inkscape:zoom="1.0827132"
     inkscape:cx="201.80782"
     inkscape:cy="240.13745"
     inkscape:current-layer="layer1"
     showgrid="false"
     inkscape:lockguides="false"
     showguides="true"><sodipodi:guide
       position="86.254209,109.07683"
       orientation="1,0"
       id="guide156"
       inkscape:locked="false" /><sodipodi:guide
       position="86.254209,109.07683"
       orientation="0,-1"
       id="guide157"
       inkscape:locked="false" /><sodipodi:guide
       position="86.254209,93.201827"
       orientation="0,-1"
       id="guide158"
       inkscape:locked="false" /><sodipodi:guide
       position="86.254206,75.674391"
       orientation="0,-1"
       id="guide159"
       inkscape:locked="false" /><sodipodi:guide
       position="86.254209,65.09106"
       orientation="0,-1"
       id="guide160"
       inkscape:locked="false" /><sodipodi:guide
       position="86.254209,49.216059"
       orientation="0,-1"
       id="guide161"
       inkscape:locked="false" /><sodipodi:guide
       position="86.254209,38.632725"
       orientation="0,-1"
       id="guide162"
       inkscape:locked="false" /><sodipodi:guide
       position="86.254209,22.757725"
       orientation="0,-1"
       id="guide163"
       inkscape:locked="false" /><sodipodi:guide
       position="86.254209,12.174385"
       orientation="0,-1"
       id="guide164"
       inkscape:locked="false" /><sodipodi:guide
       position="103.37801,119.63249"
       orientation="1,0"
       id="guide165"
       inkscape:locked="false" /><sodipodi:guide
       position="27.550426,57.375037"
       orientation="0,-1"
       id="guide166"
       inkscape:locked="false" /><sodipodi:guide
       position="11.535829,70.537491"
       orientation="1,0"
       id="guide167"
       inkscape:locked="false" /><sodipodi:guide
       position="26.087913,70.537491"
       orientation="1,0"
       id="guide168"
       inkscape:locked="false" /><sodipodi:guide
       position="40.639999,70.537491"
       orientation="1,0"
       id="guide169"
       inkscape:locked="false" /><sodipodi:guide
       position="55.192083,70.537491"
       orientation="1,0"
       id="guide170"
       inkscape:locked="false" /><sodipodi:guide
       position="69.744167,70.537491"
       orientation="1,0"
       id="guide171"
       inkscape:locked="false" /></sodipodi:namedview><defs
     id="defs1"><linearGradient
       id="SVGID_16_"
       gradientUnits="userSpaceOnUse"
       x1="-602.15857"
       y1="1785.6912"
       x2="-578.78363"
       y2="1785.6912"
       gradientTransform="matrix(0,1,1,0,-1773.8412,602.39905)">
			<stop
   offset="0"
   style="stop-color:#828181"
   id="stop138" />
			<stop
   offset="1"
   style="stop-color:#575757"
   id="stop140" />
		</linearGradient><linearGradient
       id="SVGID_17_"
       gradientUnits="userSpaceOnUse"
       x1="1062.069"
       y1="-4091.6899"
       x2="1084.2738"
       y2="-4091.6899"
       gradientTransform="rotate(90,-1509.3041,-2570.5358)">
	<stop
   offset="0"
   style="stop-color:#7A7A7A"
   id="stop149" />
		<stop
   offset="0.99441"
   style="stop-color:#FFFFFF"
   id="stop147" />
		</linearGradient><linearGradient
       id="SVGID_18_"
       gradientUnits="userSpaceOnUse"
       x1="58.861809"
       y1="-54.6409"
       x2="58.861809"
       y2="-51.86816"
       gradientTransform="matrix(1,0,0,-1,-47.00625,-41.32658)">
		<stop
   offset="0"
   style="stop-color:#FFFBFD"
   id="stop156" />
		<stop
   offset="1"
   style="stop-color:#808080"
   id="stop158" />
	</linearGradient><linearGradient
       id="SVGID_19_"
       gradientUnits="userSpaceOnUse"
       x1="-1240.7925"
       y1="-381.89734"
       x2="-1223.3157"
       y2="-381.89734"
       gradientTransform="matrix(0,-1,-1,0,-370.04718,-1220.1261)">
		<stop
   offset="0"
   style="stop-color:#B0AEAE"
   id="stop163" />
		<stop
   offset="1"
   style="stop-color:#616161"
   id="stop165" />
	</linearGradient><linearGradient
       id="SVGID_20_"
       gradientUnits="userSpaceOnUse"
       x1="-1884.8636"
       y1="21.48288"
       x2="-1884.8636"
       y2="6.22048"
       gradientTransform="rotate(180,-936.50671,12.88983)">
	<stop
   offset="0"
   style="stop-color:#545454"
   id="stop176" />
		<stop
   offset="1"
   style="stop-color:#FFFEFE"
   id="stop174" />
		</linearGradient><linearGradient
       id="SVGID_21_"
       gradientUnits="userSpaceOnUse"
       x1="-1884.8636"
       y1="8.3375502"
       x2="-1884.8636"
       y2="19.36582"
       gradientTransform="rotate(180,-936.50671,12.88983)">
		<stop
   offset="0"
   style="stop-color:#FFFEFE"
   id="stop191" />
		<stop
   offset="1"
   style="stop-color:#706C6C"
   id="stop193" />
	</linearGradient><linearGradient
       id="path5815_1_"
       gradientUnits="userSpaceOnUse"
       x1="-1044.7188"
       y1="1036.536"
       x2="-1044.7188"
       y2="1045.3826"
       gradientTransform="rotate(-90,-1036.6279,-1.36035)">
		<stop
   offset="0.00559"
   style="stop-color:#3D3B3B"
   id="stop3-1" />
		<stop
   offset="1"
   style="stop-color:#2D2C2C"
   id="stop4-1" />
	</linearGradient><linearGradient
       id="path243334_1_"
       gradientUnits="userSpaceOnUse"
       x1="-277.82422"
       y1="-297.28513"
       x2="-277.82422"
       y2="-271.47653"
       gradientTransform="matrix(0,0.26458333,-0.26458333,0,-38.419351,204.93425)">
	<stop
   offset="0"
   style="stop-color:#3B3B3B"
   id="stop1-1" />
	<stop
   offset="1"
   style="stop-color:#242424"
   id="stop2-5" />
</linearGradient><linearGradient
       id="path5805_1_"
       gradientUnits="userSpaceOnUse"
       x1="6.9992099"
       y1="1.33285"
       x2="6.9992099"
       y2="19.459539">
			<stop
   offset="0"
   style="stop-color:#3B3B3B"
   id="stop1-15" />
			<stop
   offset="1"
   style="stop-color:#242424"
   id="stop2-80" />
		</linearGradient><linearGradient
       id="path5815_2_-9"
       gradientUnits="userSpaceOnUse"
       x1="6.9992099"
       y1="10.61302"
       x2="6.9992099"
       y2="19.459539">
		<stop
   offset="0.00559"
   style="stop-color:#3D3B3B"
   id="stop3-2" />
		<stop
   offset="1"
   style="stop-color:#2D2C2C"
   id="stop4-4" />
	</linearGradient></defs><g
     inkscape:label="Layer 1"
     inkscape:groupmode="layer"
     id="layer1"><rect
       style="fill:#515151;fill-opacity:1;stroke:none;stroke-width:0.499999;stroke-linecap:round;stroke-miterlimit:4;stroke-dasharray:none;stop-color:#000000"
       id="rect833"
       width="96.519997"
       height="128.5"
       x="6.9388939e-18"
       y="0" /><g
       id="g5"
       transform="translate(-2.910533,0.51816007)"
       style="opacity:1"><g
         id="text1"
         style="font-size:10.5833px;line-height:1.25;font-family:'Heysei Synthesizer';-inkscape-font-specification:'Heysei Synthesizer';text-align:center;text-anchor:middle;fill:#cccccc;stroke-width:0.496074"
         aria-label="ORBsq"
         transform="matrix(0.53335383,0,0,0.53335383,19.173754,-7.0037983)"><path
           d="m 23.173849,26.856485 c -0.620115,-0.0069 -1.109317,-0.124023 -1.467606,-0.351398 -0.351399,-0.234266 -0.544323,-0.537434 -0.578774,-0.909503 V 20.51064 c 0.03445,-0.372069 0.227378,-0.671792 0.578774,-0.899167 0.358289,-0.234266 0.847491,-0.354844 1.467606,-0.361734 h 4.671535 c 0.620115,0.0069 1.105872,0.127465 1.45727,0.361734 0.358289,0.227375 0.554659,0.527098 0.58911,0.899167 v 5.084944 c -0.03445,0.372069 -0.230823,0.675237 -0.58911,0.909503 -0.351398,0.227375 -0.837155,0.344508 -1.45727,0.351398 z m 3.834379,-1.943027 V 21.192766 H 24.02134 v 3.720692 z m 4.723211,1.943027 h -1.045328 l -0.0089,-0.785479 V 20.51064 19.252502 l 2.04638,-0.0028 h 4.692205 c 0.620115,0.0069 1.105872,0.127465 1.457271,0.361734 0.358289,0.227375 0.554659,0.527098 0.58911,0.899167 v 1.281571 c -0.03445,0.372069 -0.210153,0.661456 -0.527098,0.868161 -0.316948,0.206705 -0.695907,0.330729 -1.136878,0.37207 0.496092,0.124023 0.823375,0.351398 0.981849,0.682126 l 0.661456,2.356438 c -0.06201,0.489202 -0.406522,0.751028 -1.033525,0.785479 H 37.58116 c -0.599445,-0.03445 -0.943953,-0.289389 -1.033525,-0.764808 l -0.558104,-2.067051 h -2.439119 v 2.04638 c -0.06201,0.489202 -0.406522,0.751028 -1.033526,0.785479 z m 4.836899,-5.167626 v -0.496093 h -3.017894 v 0.888832 h 2.583813 c 0.254936,-0.01378 0.39963,-0.144693 0.434081,-0.392739 z m 5.725731,5.167626 -2.051405,-0.0021 0.005,-1.258804 V 20.51064 l -0.005,-1.277846 2.051405,0.01695 h 4.692205 c 0.620115,0.0069 1.105872,0.127465 1.457271,0.361734 0.358289,0.227375 0.554659,0.527098 0.58911,0.899167 v 1.384924 c -0.03445,0.337618 -0.151586,0.592554 -0.351399,0.764808 -0.199815,0.172255 -0.502982,0.303168 -0.909502,0.39274 0.40652,0.08957 0.709687,0.220485 0.909502,0.39274 0.199815,0.172254 0.316948,0.42719 0.351399,0.764808 v 1.384924 c -0.03445,0.372069 -0.230823,0.675237 -0.58911,0.909503 -0.351399,0.227375 -0.837156,0.344508 -1.457271,0.351398 z m 3.844715,-5.167626 V 21.192766 H 43.12089 v 0.888832 h 2.583813 c 0.254936,-0.01378 0.39963,-0.144693 0.434081,-0.392739 z m 0,2.728507 c -0.03445,-0.248047 -0.179147,-0.37896 -0.434081,-0.39274 H 43.12089 v 0.888832 h 3.017894 z"
           id="path3"
           sodipodi:nodetypes="ccccccccccccccccccccccccccccscccccccccccccccccccccccccccscsccccccccccccccccc"
           style="fill:#cccccc;stroke-width:0.496074" /><path
           style="font-size:5.64444px;fill:#cccccc;stroke-width:0.496074"
           d="m 49.888414,24.684699 q -0.225998,-0.137804 -0.253559,-0.463021 v -0.749652 q 0.02756,-0.297656 0.308681,-0.479557 0.286631,-0.187413 0.782725,-0.192925 h 2.502515 q 0.496093,0.0055 0.777213,0.192925 0.286632,0.181901 0.314193,0.479557 v 0.639409 q -0.04961,0.391363 -0.551215,0.418924 h -0.440972 q -0.501606,-0.02756 -0.551215,-0.418924 v -0.275607 h -1.598523 v 0.225998 l 2.888366,0.909505 q 0.225998,0.137803 0.253559,0.46302 v 0.749652 q -0.02756,0.297656 -0.314193,0.485069 -0.28112,0.181901 -0.777213,0.187413 h -2.502515 q -0.496094,-0.0055 -0.782725,-0.187413 -0.28112,-0.187413 -0.308681,-0.485069 v -0.639409 q 0.04961,-0.391363 0.551215,-0.418923 h 0.440972 q 0.501605,0.02756 0.551215,0.418923 v 0.275607 h 1.598523 v -0.225998 z m 5.942097,2.171786 q -0.496094,-0.0055 -0.782726,-0.187413 -0.281119,-0.187413 -0.30868,-0.485069 v -2.711977 q 0.02756,-0.297656 0.30868,-0.479557 0.286632,-0.187413 0.782726,-0.192925 h 2.491491 q 0.496093,0.0055 0.777213,0.192925 0.286631,0.181901 0.314192,0.479557 v 2.711977 q -0.02756,0.297656 -0.314192,0.485069 -0.28112,0.181901 -0.777213,0.187413 h -0.474045 v 0.363802 q -0.04961,0.391363 -0.551215,0.418923 H 56.85577 q -0.501605,-0.02756 -0.551215,-0.418923 v -0.363802 z m 2.045007,-1.036284 v -1.984373 h -1.593011 v 1.984373 z"
           id="path4" /></g><g
         id="g4"><rect
           style="opacity:1;fill:#1a1a1a;stroke:none;stroke-width:0.1;stroke-linejoin:round"
           id="rect4"
           width="3.9027417"
           height="4.0555935"
           x="51.73719"
           y="3.2645972" /><path
           d="M 54.093938,3.8676707 53.509641,6.7171176 H 53.149459 L 52.569164,3.8676707 h 0.43222 l 0.324164,1.98901 h 0.008 l 0.328167,-1.98901 z m 0.220111,2.8494469 V 4.6880873 h 0.408207 v 2.0290303 z m 0,-2.4412397 V 3.8676707 h 0.408207 v 0.4082072 z"
           id="text4"
           style="font-size:4.65063px;line-height:1.25;font-family:'DIN Condensed';-inkscape-font-specification:'DIN Condensed, ';text-align:center;text-anchor:middle;fill:#cccccc;stroke-width:0.264583"
           aria-label="Vi" /></g></g><path
       id="rect835"
       style="stroke-width:0.499999;stroke-linecap:round;stop-color:#000000"
       d="M 9.2470942,10.842366 H 72.032897 c 0.921509,0 1.663373,0.741865 1.663373,1.663373 v 35.930189 c 0,0.921509 -0.741864,1.663373 -1.663373,1.663373 H 9.2470942 c -0.9215087,0 -1.663373,-0.741864 -1.663373,-1.663373 V 12.505739 c 0,-0.921508 0.7418643,-1.663373 1.663373,-1.663373 z" /><path
       id="rect835-5"
       style="fill:none;stroke:#333333;stroke-width:0.25;stroke-linecap:round;stop-color:#000000"
       d="M 9.2470942,10.842366 H 72.032897 c 0.921509,0 1.663373,0.741865 1.663373,1.663373 v 35.930189 c 0,0.921509 -0.741864,1.663373 -1.663373,1.663373 H 9.2470942 c -0.9215087,0 -1.663373,-0.741864 -1.663373,-1.663373 V 12.505739 c 0,-0.921508 0.7418643,-1.663373 1.663373,-1.663373 z" /><rect
       style="fill:#999999;fill-opacity:1;stroke:none;stroke-width:0.1;stroke-linejoin:round;-inkscape-stroke:none"
       id="rect158-3"
       width="11.114281"
       height="78.226707"
       x="80.697014"
       y="43.699165"
       ry="2.1615255" /><path
       d="m 9.0789465,55.133675 v -2.2606 h 0.473075 q 0.155575,0 0.263525,0.04763 0.111125,0.04762 0.180975,0.127 0.06985,0.07937 0.098425,0.18415 0.03175,0.1016 0.03175,0.212725 v 0.08255 q 0,0.09208 -0.01587,0.155575 -0.0127,0.0635 -0.04128,0.111125 -0.05397,0.0889 -0.165102,0.1524 0.114302,0.05398 0.168277,0.15875 0.05397,0.104775 0.05397,0.28575 v 0.127 q 0,0.29845 -0.146052,0.4572 -0.142875,0.15875 -0.460375,0.15875 z m 0.32385,-1.04775 v 0.7239 h 0.1397 q 0.098425,0 0.1524,-0.02858 0.05715,-0.02857 0.085725,-0.07937 0.028575,-0.0508 0.034925,-0.12065 0.00635,-0.06985 0.00635,-0.1524 0,-0.08573 -0.00953,-0.149225 -0.00953,-0.0635 -0.0381,-0.10795 -0.03175,-0.04445 -0.085725,-0.0635 -0.053975,-0.02222 -0.142875,-0.02222 z m 0,-0.90805 v 0.6223 h 0.14605 q 0.161925,0 0.2159,-0.07937 0.05715,-0.08255 0.05715,-0.238125 0,-0.1524 -0.0635,-0.2286 -0.060325,-0.0762 -0.22225,-0.0762 z m 1.6446545,1.165225 -0.15875,-0.81915 h -0.0063 l -0.15875,0.81915 z m -0.8001,0.790575 0.504825,-2.2606 h 0.269875 l 0.504825,2.2606 h -0.32385 L 11.107776,54.6479 h -0.441325 l -0.09525,0.485775 z m 2.486024,-1.609725 h -0.32385 v -0.07303 q 0,-0.111125 -0.05398,-0.1905 -0.0508,-0.08255 -0.174625,-0.08255 -0.06668,0 -0.10795,0.0254 -0.04127,0.0254 -0.06668,0.0635 -0.0254,0.04127 -0.03492,0.09525 -0.0095,0.0508 -0.0095,0.10795 0,0.06668 0.0032,0.111125 0.0063,0.04445 0.0254,0.07937 0.01905,0.03493 0.05397,0.06033 0.0381,0.0254 0.1016,0.0508 l 0.24765,0.09842 q 0.10795,0.04128 0.174625,0.09843 0.06668,0.05397 0.104775,0.127 0.03492,0.0762 0.04763,0.174625 0.0127,0.09525 0.0127,0.219075 0,0.142875 -0.02858,0.2667 -0.02858,0.12065 -0.09208,0.206375 -0.06668,0.0889 -0.174625,0.1397 -0.10795,0.0508 -0.263525,0.0508 -0.117475,0 -0.219075,-0.04128 -0.1016,-0.04127 -0.174625,-0.1143 -0.07302,-0.07302 -0.117475,-0.168275 -0.04127,-0.09843 -0.04127,-0.212725 v -0.12065 h 0.32385 v 0.1016 q 0,0.0889 0.0508,0.161925 0.05398,0.06985 0.1778,0.06985 0.08255,0 0.127,-0.02223 0.04763,-0.0254 0.07302,-0.06985 0.0254,-0.04445 0.02858,-0.104775 0.0064,-0.0635 0.0064,-0.1397 0,-0.0889 -0.0064,-0.14605 -0.0063,-0.05715 -0.0254,-0.09208 -0.02223,-0.03492 -0.06033,-0.05715 -0.03492,-0.02223 -0.09525,-0.04763 L 11.99046,54.05415 q -0.20955,-0.08572 -0.282575,-0.225425 -0.06985,-0.142875 -0.06985,-0.3556 0,-0.127 0.03492,-0.2413 0.03493,-0.1143 0.104775,-0.19685 0.06668,-0.08255 0.168275,-0.130175 0.104775,-0.0508 0.24765,-0.0508 0.12065,0 0.219075,0.04445 0.1016,0.04445 0.174625,0.117475 0.14605,0.1524 0.14605,0.34925 z m 0.2413,1.609725 v -2.2606 h 0.9652 v 0.3048 h -0.64135 v 0.663575 h 0.5588 v 0.3048 h -0.5588 v 0.663575 h 0.64135 v 0.32385 z"
       id="text156"
       style="font-size:3.175px;line-height:1.25;font-family:'DIN Condensed';-inkscape-font-specification:'DIN Condensed, ';text-align:center;text-anchor:middle;fill:#f2f2f2;stroke-width:0.264583"
       aria-label="BASE" /><rect
       style="fill:#999999;fill-opacity:1;stroke:none;stroke-width:0.1;stroke-linejoin:round;-inkscape-stroke:none"
       id="rect158"
       width="19.112005"
       height="19.313208"
       x="9.2558699"
       y="99.505928"
       ry="1.8379704" /><path
       d="m 16.904226,102.24737 h -0.32385 v -0.073 q 0,-0.11112 -0.05398,-0.1905 -0.0508,-0.0825 -0.174625,-0.0825 -0.06668,0 -0.10795,0.0254 -0.04127,0.0254 -0.06668,0.0635 -0.0254,0.0413 -0.03492,0.0953 -0.0095,0.0508 -0.0095,0.10795 0,0.0667 0.0032,0.11113 0.0064,0.0444 0.0254,0.0794 0.01905,0.0349 0.05397,0.0603 0.0381,0.0254 0.1016,0.0508 l 0.24765,0.0984 q 0.10795,0.0413 0.174625,0.0984 0.06668,0.054 0.104775,0.127 0.03493,0.0762 0.04763,0.17462 0.0127,0.0953 0.0127,0.21908 0,0.14287 -0.02858,0.2667 -0.02858,0.12065 -0.09208,0.20637 -0.06668,0.0889 -0.174625,0.1397 -0.10795,0.0508 -0.263525,0.0508 -0.117475,0 -0.219075,-0.0413 -0.1016,-0.0413 -0.174625,-0.1143 -0.07303,-0.073 -0.117475,-0.16828 -0.04128,-0.0984 -0.04128,-0.21272 v -0.12065 h 0.32385 v 0.1016 q 0,0.0889 0.0508,0.16192 0.05398,0.0699 0.1778,0.0699 0.08255,0 0.127,-0.0222 0.04763,-0.0254 0.07303,-0.0698 0.0254,-0.0445 0.02858,-0.10478 0.0064,-0.0635 0.0064,-0.1397 0,-0.0889 -0.0064,-0.14605 -0.0064,-0.0571 -0.0254,-0.0921 -0.02222,-0.0349 -0.06032,-0.0572 -0.03493,-0.0222 -0.09525,-0.0476 l -0.231775,-0.0952 q -0.20955,-0.0857 -0.282575,-0.22542 -0.06985,-0.14288 -0.06985,-0.3556 0,-0.127 0.03492,-0.2413 0.03492,-0.1143 0.104775,-0.19685 0.06667,-0.0825 0.168275,-0.13018 0.104775,-0.0508 0.24765,-0.0508 0.12065,0 0.219075,0.0444 0.1016,0.0445 0.174625,0.11748 0.14605,0.1524 0.14605,0.34925 z m 0.454026,1.60972 v -1.9558 h -0.37465 v -0.3048 h 1.07315 v 0.3048 h -0.37465 v 1.9558 z m 0.841377,0 v -2.2606 h 0.9652 v 0.3048 h -0.64135 v 0.66358 h 0.5588 v 0.3048 h -0.5588 v 0.66357 h 0.64135 v 0.32385 z m 1.174752,0 v -2.2606 h 0.485775 q 0.13335,0 0.23495,0.0349 0.1016,0.0349 0.18415,0.12382 0.08255,0.0889 0.1143,0.20955 0.03175,0.11748 0.03175,0.32068 0,0.1524 -0.01905,0.25717 -0.01587,0.10478 -0.07302,0.19685 -0.06668,0.11113 -0.1778,0.17463 -0.111125,0.0603 -0.2921,0.0603 h -0.1651 v 0.88265 z m 0.32385,-1.9558 v 0.76835 h 0.155575 q 0.09843,0 0.1524,-0.0286 0.05398,-0.0286 0.07938,-0.0794 0.0254,-0.0476 0.02858,-0.11747 0.0063,-0.0699 0.0063,-0.15558 0,-0.0794 -0.0032,-0.14922 -0.0032,-0.073 -0.02858,-0.127 -0.0254,-0.054 -0.0762,-0.0826 -0.0508,-0.0286 -0.14605,-0.0286 z m 2.016124,0.34608 h -0.32385 v -0.073 q 0,-0.11112 -0.05398,-0.1905 -0.0508,-0.0825 -0.174625,-0.0825 -0.06668,0 -0.10795,0.0254 -0.04127,0.0254 -0.06668,0.0635 -0.0254,0.0413 -0.03492,0.0953 -0.0095,0.0508 -0.0095,0.10795 0,0.0667 0.0032,0.11113 0.0064,0.0444 0.0254,0.0794 0.01905,0.0349 0.05397,0.0603 0.0381,0.0254 0.1016,0.0508 l 0.24765,0.0984 q 0.10795,0.0413 0.174625,0.0984 0.06668,0.054 0.104775,0.127 0.03493,0.0762 0.04763,0.17462 0.0127,0.0953 0.0127,0.21908 0,0.14287 -0.02858,0.2667 -0.02858,0.12065 -0.09208,0.20637 -0.06668,0.0889 -0.174625,0.1397 -0.10795,0.0508 -0.263525,0.0508 -0.117475,0 -0.219075,-0.0413 -0.1016,-0.0413 -0.174625,-0.1143 -0.07303,-0.073 -0.117475,-0.16828 -0.04128,-0.0984 -0.04128,-0.21272 v -0.12065 h 0.32385 v 0.1016 q 0,0.0889 0.0508,0.16192 0.05398,0.0699 0.1778,0.0699 0.08255,0 0.127,-0.0222 0.04763,-0.0254 0.07303,-0.0698 0.0254,-0.0445 0.02858,-0.10478 0.0064,-0.0635 0.0064,-0.1397 0,-0.0889 -0.0064,-0.14605 -0.0064,-0.0571 -0.0254,-0.0921 -0.02222,-0.0349 -0.06032,-0.0572 -0.03493,-0.0222 -0.09525,-0.0476 l -0.231775,-0.0952 q -0.20955,-0.0857 -0.282575,-0.22542 -0.06985,-0.14288 -0.06985,-0.3556 0,-0.127 0.03493,-0.2413 0.03492,-0.1143 0.104775,-0.19685 0.06668,-0.0825 0.168275,-0.13018 0.104775,-0.0508 0.24765,-0.0508 0.12065,0 0.219075,0.0444 0.1016,0.0445 0.174625,0.11748 0.14605,0.1524 0.14605,0.34925 z"
       id="text156-6"
       style="font-size:3.175px;line-height:1.25;font-family:'DIN Condensed';-inkscape-font-specification:'DIN Condensed, ';text-align:center;text-anchor:middle;fill:#f2f2f2;stroke-width:0.264583"
       aria-label="STEPS" /><path
       d="m 23.215068,53.177875 v 0.70485 h 0.18415 q 0.08573,0 0.136525,-0.02222 0.0508,-0.0254 0.07937,-0.06985 0.0254,-0.04445 0.03493,-0.10795 0.0095,-0.06668 0.0095,-0.1524 0,-0.08573 -0.0095,-0.149225 -0.0095,-0.06668 -0.0381,-0.1143 -0.06032,-0.0889 -0.2286,-0.0889 z m -0.32385,1.9558 v -2.2606 h 0.5207 q 0.5715,0 0.5715,0.663575 0,0.200025 -0.0635,0.339725 -0.06032,0.1397 -0.2159,0.225425 l 0.34925,1.031875 h -0.3429 l -0.301625,-0.9652 h -0.193675 v 0.9652 z M 24.89782,54.3431 24.73907,53.52395 h -0.0064 l -0.15875,0.81915 z m -0.8001,0.790575 0.504825,-2.2606 h 0.269875 l 0.504825,2.2606 h -0.32385 L 24.958145,54.6479 H 24.51682 l -0.09525,0.485775 z m 1.425574,0 v -2.2606 h 0.31115 l 0.48895,1.362075 h 0.0064 v -1.362075 h 0.32385 v 2.2606 h -0.3048 l -0.4953,-1.3589 h -0.0064 v 1.3589 z m 1.403351,-1.7272 q 0,-0.136525 0.04763,-0.2413 0.04763,-0.104775 0.127,-0.174625 0.0762,-0.06667 0.17145,-0.1016 0.09842,-0.03493 0.19685,-0.03493 0.09842,0 0.193675,0.03493 0.09842,0.03493 0.1778,0.1016 0.0762,0.06985 0.123825,0.174625 0.04763,0.104775 0.04763,0.2413 v 0.1143 h -0.32385 v -0.1143 q 0,-0.117475 -0.06668,-0.17145 -0.0635,-0.05715 -0.1524,-0.05715 -0.0889,0 -0.155575,0.05715 -0.0635,0.05398 -0.0635,0.17145 v 1.1938 q 0,0.117475 0.0635,0.174625 0.06668,0.05398 0.155575,0.05398 0.0889,0 0.1524,-0.05398 0.06668,-0.05715 0.06668,-0.174625 v -0.42545 H 27.43147 v -0.28575 h 0.581025 v 0.7112 q 0,0.142875 -0.04763,0.244475 -0.04763,0.1016 -0.123825,0.168275 -0.07938,0.06985 -0.1778,0.104775 -0.09525,0.03493 -0.193675,0.03493 -0.09843,0 -0.19685,-0.03493 -0.09525,-0.03493 -0.17145,-0.104775 -0.07937,-0.06667 -0.127,-0.168275 -0.04763,-0.1016 -0.04763,-0.244475 z m 1.371602,1.7272 v -2.2606 h 0.9652 v 0.3048 h -0.64135 v 0.663575 h 0.5588 v 0.3048 h -0.5588 v 0.663575 h 0.64135 v 0.32385 z"
       id="text156-8"
       style="font-size:3.175px;line-height:1.25;font-family:'DIN Condensed';-inkscape-font-specification:'DIN Condensed, ';text-align:center;text-anchor:middle;fill:#f2f2f2;stroke-width:0.264583"
       aria-label="RANGE" /><path
       d="m 37.943365,55.133675 v -2.2606 h 0.479425 q 0.2794,0 0.422275,0.1524 0.14605,0.1524 0.14605,0.4318 v 1.057275 q 0,0.3175 -0.155575,0.4699 -0.1524,0.149225 -0.441325,0.149225 z m 0.32385,-1.9558 v 1.651 h 0.149225 q 0.136525,0 0.193675,-0.06668 0.05715,-0.06985 0.05715,-0.2159 V 53.45727 q 0,-0.13335 -0.05398,-0.206375 -0.05398,-0.07303 -0.19685,-0.07303 z m 1.352551,0 v 0.70485 h 0.18415 q 0.08572,0 0.136525,-0.02222 0.0508,-0.0254 0.07937,-0.06985 0.0254,-0.04445 0.03493,-0.10795 0.0095,-0.06668 0.0095,-0.1524 0,-0.08573 -0.0095,-0.149225 -0.0095,-0.06668 -0.0381,-0.1143 -0.06032,-0.0889 -0.2286,-0.0889 z m -0.32385,1.9558 v -2.2606 h 0.5207 q 0.5715,0 0.5715,0.663575 0,0.200025 -0.0635,0.339725 -0.06032,0.1397 -0.2159,0.225425 l 0.34925,1.031875 h -0.3429 l -0.301625,-0.9652 h -0.193675 v 0.9652 z m 1.362077,0 v -2.2606 h 0.32385 v 2.2606 z m 0.638177,0 v -2.2606 h 0.9652 v 0.3048 h -0.64135 v 0.6858 h 0.5588 v 0.3048 h -0.5588 v 0.9652 z m 1.387477,0 v -1.9558 h -0.37465 v -0.3048 h 1.07315 v 0.3048 h -0.37465 v 1.9558 z"
       id="text156-5"
       style="font-size:3.175px;line-height:1.25;font-family:'DIN Condensed';-inkscape-font-specification:'DIN Condensed, ';text-align:center;text-anchor:middle;fill:#f2f2f2;stroke-width:0.264583"
       aria-label="DRIFT" /><path
       d="m 53.765454,54.3431 -0.15875,-0.81915 h -0.0063 l -0.15875,0.81915 z m -0.8001,0.790575 0.504825,-2.2606 h 0.269875 l 0.504825,2.2606 h -0.32385 L 53.825779,54.6479 h -0.441325 l -0.09525,0.485775 z m 1.438273,0 v -2.2606 h 0.31115 l 0.415925,1.196975 h 0.0063 l 0.41275,-1.196975 h 0.314325 v 2.2606 h -0.32385 V 53.7589 h -0.0064 l -0.320675,0.97155 h -0.161925 l -0.3175,-0.97155 h -0.0063 v 1.374775 z m 1.765299,0 v -2.2606 h 0.485775 q 0.13335,0 0.23495,0.03493 0.1016,0.03493 0.18415,0.123825 0.08255,0.0889 0.1143,0.20955 0.03175,0.117475 0.03175,0.320675 0,0.1524 -0.01905,0.257175 -0.01588,0.104775 -0.07303,0.19685 -0.06667,0.111125 -0.1778,0.174625 -0.111125,0.06032 -0.2921,0.06032 h -0.1651 v 0.88265 z m 0.32385,-1.9558 v 0.76835 h 0.155575 q 0.09842,0 0.1524,-0.02857 0.05398,-0.02858 0.07937,-0.07937 0.0254,-0.04763 0.02858,-0.117475 0.0063,-0.06985 0.0063,-0.155575 0,-0.07937 -0.0032,-0.149225 -0.0032,-0.07303 -0.02857,-0.127 -0.0254,-0.05398 -0.0762,-0.08255 -0.0508,-0.02858 -0.14605,-0.02858 z"
       id="text156-9"
       style="font-size:3.175px;line-height:1.25;font-family:'DIN Condensed';-inkscape-font-specification:'DIN Condensed, ';text-align:center;text-anchor:middle;fill:#f2f2f2;stroke-width:0.264583"
       aria-label="AMP" /><path
       d="m 66.666526,55.133675 v -2.2606 h 0.9652 v 0.3048 h -0.64135 v 0.6858 h 0.5588 v 0.3048 h -0.5588 v 0.9652 z m 1.184278,0 v -2.2606 h 0.32385 v 2.2606 z m 0.638176,0 v -2.2606 h 0.32385 v 1.93675 h 0.64135 v 0.32385 z m 1.15253,0 v -1.9558 h -0.37465 v -0.3048 h 1.07315 v 0.3048 h -0.37465 v 1.9558 z m 0.841377,0 v -2.2606 h 0.9652 v 0.3048 h -0.64135 v 0.663575 h 0.5588 v 0.3048 h -0.5588 v 0.663575 h 0.64135 v 0.32385 z m 1.498603,-1.9558 v 0.70485 h 0.18415 q 0.08573,0 0.136525,-0.02222 0.0508,-0.0254 0.07937,-0.06985 0.0254,-0.04445 0.03493,-0.10795 0.0095,-0.06668 0.0095,-0.1524 0,-0.08573 -0.0095,-0.149225 -0.0095,-0.06668 -0.0381,-0.1143 -0.06033,-0.0889 -0.2286,-0.0889 z m -0.32385,1.9558 v -2.2606 h 0.5207 q 0.5715,0 0.5715,0.663575 0,0.200025 -0.0635,0.339725 -0.06033,0.1397 -0.2159,0.225425 l 0.34925,1.031875 h -0.3429 l -0.301625,-0.9652 H 71.98149 v 0.9652 z"
       id="text156-0"
       style="font-size:3.175px;line-height:1.25;font-family:'DIN Condensed';-inkscape-font-specification:'DIN Condensed, ';text-align:center;text-anchor:middle;fill:#f2f2f2;stroke-width:0.264583"
       aria-label="FILTER" /><path
       style="fill:none;stroke:#e6e6e6;stroke-width:0.264583px;stroke-linecap:butt;stroke-linejoin:miter;stroke-opacity:1"
       d="m 38.364954,71.124964 h 4.550092"
       id="path157" /><path
       style="fill:none;stroke:#e6e6e6;stroke-width:0.264583px;stroke-linecap:butt;stroke-linejoin:miter;stroke-opacity:1"
       d="m 67.469122,71.124964 h 4.550092"
       id="path157-5" /><path
       style="fill:none;stroke:#cccccc;stroke-width:0.264581px;stroke-linecap:butt;stroke-linejoin:miter;stroke-dashoffset:0;stroke-opacity:1"
       d="M 33.1509 53.9125 L 33.1509 54.1778 M 33.1509 57.3523 L 33.1509 57.6171 M 33.1509 60.7911 L 33.1509 61.0551 M 33.1509 64.2303 L 33.1509 64.4957 M 33.1509 67.6703 L 33.1509 67.9345 M 33.1509 71.11 L 33.1509 71.3742 M 33.1509 74.5491 L 33.1509 74.8136 M 33.1509 77.9886 L 33.1509 78.253 M 33.1509 81.4274 L 33.1509 81.6914 M 33.1509 84.8657 L 33.1509 85.1309 M 33.1509 88.3056 L 33.1509 88.5712 M 33.1509 91.7459 L 33.1509 92.0103 M 33.1509 95.1855 L 33.1509 95.4503 M 33.1509 98.6253 L 33.1509 98.8889 M 33.1509 102.064 L 33.1509 102.328 M 33.1509 105.503 L 33.1509 105.769 M 33.1509 108.944 L 33.1509 109.209 M 33.1509 112.384 L 33.1509 112.648 M 33.1509 115.824 L 33.1509 116.089 M 33.1509 119.263 L 33.1509 119.529 M 33.1509 122.704 L 33.1509 122.861"
       id="path158" /><path
       style="fill:none;stroke:#cccccc;stroke-width:0.264581px;stroke-linecap:butt;stroke-linejoin:miter;stroke-dashoffset:0;stroke-opacity:1"
       d="M 47.9675 53.9125 L 47.9675 54.1778 M 47.9675 57.3523 L 47.9675 57.6171 M 47.9675 60.7911 L 47.9675 61.0551 M 47.9675 64.2303 L 47.9675 64.4957 M 47.9675 67.6703 L 47.9675 67.9345 M 47.9675 71.11 L 47.9675 71.3742 M 47.9675 74.5491 L 47.9675 74.8136 M 47.9675 77.9886 L 47.9675 78.253 M 47.9675 81.4274 L 47.9675 81.6914 M 47.9675 84.8657 L 47.9675 85.1309 M 47.9675 88.3056 L 47.9675 88.5712 M 47.9675 91.7459 L 47.9675 92.0103 M 47.9675 95.1855 L 47.9675 95.4503 M 47.9675 98.6253 L 47.9675 98.8889 M 47.9675 102.064 L 47.9675 102.328 M 47.9675 105.503 L 47.9675 105.769 M 47.9675 108.944 L 47.9675 109.209 M 47.9675 112.384 L 47.9675 112.648 M 47.9675 115.824 L 47.9675 116.089 M 47.9675 119.263 L 47.9675 119.529 M 47.9675 122.704 L 47.9675 122.861"
       id="path158-9" /><path
       style="fill:none;stroke:#cccccc;stroke-width:0.264581px;stroke-linecap:butt;stroke-linejoin:miter;stroke-dashoffset:0;stroke-opacity:1"
       d="M 62.255 53.9125 L 62.255 54.1778 M 62.255 57.3523 L 62.255 57.6171 M 62.255 60.7911 L 62.255 61.0551 M 62.255 64.2303 L 62.255 64.4957 M 62.255 67.6703 L 62.255 67.9345 M 62.255 71.11 L 62.255 71.3742 M 62.255 74.5491 L 62.255 74.8136 M 62.255 77.9886 L 62.255 78.253 M 62.255 81.4274 L 62.255 81.6914 M 62.255 84.8657 L 62.255 85.1309 M 62.255 88.3056 L 62.255 88.5712 M 62.255 91.7459 L 62.255 92.0103 M 62.255 95.1855 L 62.255 95.4503 M 62.255 98.6253 L 62.255 98.8889 M 62.255 102.064 L 62.255 102.328 M 62.255 105.503 L 62.255 105.769 M 62.255 108.944 L 62.255 109.209 M 62.255 112.384 L 62.255 112.648 M 62.255 115.824 L 62.255 116.089 M 62.255 119.263 L 62.255 119.529 M 62.255 122.704 L 62.255 122.861"
       id="path158-9-4" /><path
       d="m 83.125185,14.337984 v -1.9558 h -0.37465 v -0.3048 h 1.07315 v 0.3048 h -0.37465 v 1.9558 z m 1.165227,-1.9558 v 0.70485 h 0.18415 q 0.08572,0 0.136525,-0.02222 0.0508,-0.0254 0.07937,-0.06985 0.0254,-0.04445 0.03493,-0.10795 0.0095,-0.06668 0.0095,-0.1524 0,-0.08573 -0.0095,-0.149225 -0.0095,-0.06668 -0.0381,-0.1143 -0.06032,-0.0889 -0.2286,-0.0889 z m -0.32385,1.9558 v -2.2606 h 0.5207 q 0.5715,0 0.5715,0.663575 0,0.200025 -0.0635,0.339725 -0.06032,0.1397 -0.2159,0.225425 l 0.34925,1.031875 h -0.3429 l -0.301625,-0.9652 h -0.193675 v 0.9652 z m 1.362077,0 v -2.2606 h 0.32385 v 2.2606 z m 0.619126,-1.7272 q 0,-0.136525 0.04762,-0.2413 0.04762,-0.104775 0.127,-0.174625 0.0762,-0.06668 0.17145,-0.1016 0.09842,-0.03492 0.19685,-0.03492 0.09843,0 0.193675,0.03492 0.09843,0.03492 0.1778,0.1016 0.0762,0.06985 0.123825,0.174625 0.04762,0.104775 0.04762,0.2413 v 0.1143 h -0.32385 v -0.1143 q 0,-0.117475 -0.06668,-0.17145 -0.0635,-0.05715 -0.1524,-0.05715 -0.0889,0 -0.155575,0.05715 -0.0635,0.05397 -0.0635,0.17145 v 1.1938 q 0,0.117475 0.0635,0.174625 0.06668,0.05397 0.155575,0.05397 0.0889,0 0.1524,-0.05397 0.06668,-0.05715 0.06668,-0.174625 v -0.42545 H 86.45259 v -0.28575 h 0.581025 v 0.7112 q 0,0.142875 -0.04762,0.244475 -0.04762,0.1016 -0.123825,0.168275 -0.07937,0.06985 -0.1778,0.104775 -0.09525,0.03493 -0.193675,0.03493 -0.09843,0 -0.19685,-0.03493 -0.09525,-0.03492 -0.17145,-0.104775 -0.07937,-0.06668 -0.127,-0.168275 -0.04762,-0.1016 -0.04762,-0.244475 z m 1.97168,1.7272 v -2.2606 h 0.32385 v 2.2606 z m 0.625476,0 v -2.2606 h 0.31115 l 0.48895,1.362075 h 0.0063 v -1.362075 h 0.32385 v 2.2606 h -0.3048 l -0.4953,-1.3589 h -0.0063 v 1.3589 z"
       id="text156-6-5-0-3"
       style="font-size:3.175px;line-height:1.25;font-family:'DIN Condensed';-inkscape-font-specification:'DIN Condensed, ';text-align:center;text-anchor:middle;fill:#f2f2f2;stroke-width:0.264583"
       aria-label="TRIG IN" /><path
       d="m 82.417158,28.257182 v 0.70485 h 0.18415 q 0.08572,0 0.136525,-0.02223 0.0508,-0.0254 0.07937,-0.06985 0.0254,-0.04445 0.03493,-0.10795 0.0095,-0.06668 0.0095,-0.1524 0,-0.08573 -0.0095,-0.149225 -0.0095,-0.06668 -0.0381,-0.1143 -0.06032,-0.0889 -0.2286,-0.0889 z m -0.32385,1.9558 v -2.2606 h 0.5207 q 0.5715,0 0.5715,0.663575 0,0.200025 -0.0635,0.339725 -0.06032,0.1397 -0.2159,0.225425 l 0.34925,1.031875 h -0.3429 l -0.301625,-0.9652 h -0.193675 v 0.9652 z m 1.352552,0 v -2.2606 h 0.9652 v 0.3048 h -0.64135 v 0.663575 h 0.5588 v 0.3048 h -0.5588 v 0.663575 h 0.64135 v 0.32385 z m 2.222503,-1.609725 h -0.32385 v -0.07302 q 0,-0.111125 -0.05398,-0.1905 -0.0508,-0.08255 -0.174625,-0.08255 -0.06668,0 -0.10795,0.0254 -0.04127,0.0254 -0.06668,0.0635 -0.0254,0.04128 -0.03493,0.09525 -0.0095,0.0508 -0.0095,0.10795 0,0.06668 0.0032,0.111125 0.0063,0.04445 0.0254,0.07938 0.01905,0.03492 0.05397,0.06032 0.0381,0.0254 0.1016,0.0508 l 0.24765,0.09842 q 0.10795,0.04128 0.174625,0.09843 0.06667,0.05397 0.104775,0.127 0.03493,0.0762 0.04763,0.174625 0.0127,0.09525 0.0127,0.219075 0,0.142875 -0.02858,0.2667 -0.02857,0.12065 -0.09207,0.206375 -0.06668,0.0889 -0.174625,0.1397 -0.10795,0.0508 -0.263525,0.0508 -0.117475,0 -0.219075,-0.04127 -0.1016,-0.04128 -0.174625,-0.1143 -0.07303,-0.07303 -0.117475,-0.168275 -0.04127,-0.09842 -0.04127,-0.212725 v -0.12065 h 0.32385 v 0.1016 q 0,0.0889 0.0508,0.161925 0.05397,0.06985 0.1778,0.06985 0.08255,0 0.127,-0.02222 0.04762,-0.0254 0.07303,-0.06985 0.0254,-0.04445 0.02857,-0.104775 0.0064,-0.0635 0.0064,-0.1397 0,-0.0889 -0.0064,-0.14605 -0.0063,-0.05715 -0.0254,-0.09207 -0.02223,-0.03493 -0.06033,-0.05715 -0.03493,-0.02223 -0.09525,-0.04763 l -0.231775,-0.09525 q -0.20955,-0.08573 -0.282575,-0.225425 -0.06985,-0.142875 -0.06985,-0.3556 0,-0.127 0.03493,-0.2413 0.03493,-0.1143 0.104775,-0.19685 0.06668,-0.08255 0.168275,-0.130175 0.104775,-0.0508 0.24765,-0.0508 0.12065,0 0.219075,0.04445 0.1016,0.04445 0.174625,0.117475 0.14605,0.1524 0.14605,0.34925 z m 0.2413,1.609725 v -2.2606 h 0.9652 v 0.3048 h -0.64135 v 0.663575 h 0.5588 v 0.3048 h -0.5588 v 0.663575 h 0.64135 v 0.32385 z m 1.387478,0 v -1.9558 h -0.37465 v -0.3048 h 1.07315 v 0.3048 h -0.37465 v 1.9558 z m 1.441455,0 v -2.2606 h 0.32385 v 2.2606 z m 0.625476,0 v -2.2606 h 0.31115 l 0.48895,1.362075 h 0.0064 v -1.362075 h 0.32385 v 2.2606 h -0.3048 l -0.4953,-1.3589 h -0.0063 v 1.3589 z"
       id="text156-6-5-0-3-3"
       style="font-size:3.175px;line-height:1.25;font-family:'DIN Condensed';-inkscape-font-specification:'DIN Condensed, ';text-align:center;text-anchor:middle;fill:#f2f2f2;stroke-width:0.264583"
       aria-label="RESET IN" /><rect
       style="fill:#000000;fill-opacity:0.19168174;stroke:none;stroke-width:0.25;stroke-linejoin:round"
       id="rect1-0-9"
       width="9.1457891"
       height="4.3322158"
       x="81.750519"
       y="70.93631"
       ry="1.845203" /><rect
       style="fill:#000000;fill-opacity:0.19168174;stroke:none;stroke-width:0.25;stroke-linejoin:round"
       id="rect1-0"
       width="9.1457891"
       height="4.3322158"
       x="81.750519"
       y="44.477974"
       ry="1.845203" /><path
       d="m 83.882428,47.740414 v -2.2606 h 0.31115 l 0.415925,1.196975 h 0.0063 l 0.41275,-1.196975 h 0.314325 v 2.2606 h -0.32385 v -1.374775 h -0.0063 l -0.320675,0.97155 h -0.161925 l -0.3175,-0.97155 h -0.0063 v 1.374775 z m 2.419349,-0.790575 -0.15875,-0.81915 h -0.0063 l -0.15875,0.81915 z m -0.8001,0.790575 0.504825,-2.2606 h 0.269875 l 0.504825,2.2606 h -0.32385 l -0.09525,-0.485775 h -0.441325 l -0.09525,0.485775 z m 1.447799,0 v -2.2606 h 0.32385 v 2.2606 z m 0.625477,0 v -2.2606 h 0.31115 l 0.48895,1.362075 h 0.0064 v -1.362075 h 0.32385 v 2.2606 h -0.3048 l -0.4953,-1.3589 h -0.0063 v 1.3589 z"
       id="text156-6-5-0-3-3-2"
       style="font-size:3.175px;line-height:1.25;font-family:'DIN Condensed';-inkscape-font-specification:'DIN Condensed, ';text-align:center;text-anchor:middle;fill:#f2f2f2;stroke-width:0.264583"
       aria-label="MAIN" /><path
       d="m 85.061936,59.151367 v -1.303868 h -0.249767 v -0.203201 h 0.715435 v 0.203201 h -0.249767 v 1.303868 z m 0.77682,-1.303868 v 0.4699 h 0.122767 q 0.05715,0 0.09102,-0.01482 0.03387,-0.01693 0.05292,-0.04657 0.01693,-0.02963 0.02328,-0.07197 0.0064,-0.04445 0.0064,-0.1016 0,-0.05715 -0.0064,-0.09948 -0.0063,-0.04445 -0.0254,-0.0762 -0.04022,-0.05927 -0.152401,-0.05927 z m -0.2159,1.303868 v -1.507069 h 0.347133 q 0.381001,0 0.381001,0.442384 0,0.13335 -0.04233,0.226484 -0.04022,0.09313 -0.143934,0.150283 l 0.232834,0.687918 H 86.168956 L 85.967873,58.5079 h -0.129117 v 0.643467 z m 0.908052,0 v -1.507069 h 0.2159 v 1.507069 z m 0.412752,-1.151468 q 0,-0.09102 0.03175,-0.160867 0.03175,-0.06985 0.08467,-0.116417 0.0508,-0.04445 0.1143,-0.06773 0.06562,-0.02328 0.131233,-0.02328 0.06562,0 0.129117,0.02328 0.06562,0.02328 0.118534,0.06773 0.0508,0.04657 0.08255,0.116417 0.03175,0.06985 0.03175,0.160867 v 0.0762 h -0.2159 v -0.0762 q 0,-0.07832 -0.04445,-0.1143 -0.04233,-0.0381 -0.101601,-0.0381 -0.05927,0 -0.103716,0.0381 -0.04233,0.03598 -0.04233,0.1143 v 0.795868 q 0,0.07832 0.04233,0.116416 0.04445,0.03598 0.103716,0.03598 0.05927,0 0.101601,-0.03598 0.04445,-0.0381 0.04445,-0.116416 V 58.512133 H 87.28021 v -0.1905 h 0.387351 v 0.474134 q 0,0.09525 -0.03175,0.162983 -0.03175,0.06773 -0.08255,0.112184 -0.05292,0.04657 -0.118534,0.06985 -0.0635,0.02328 -0.129117,0.02328 -0.06562,0 -0.131233,-0.02328 -0.0635,-0.02328 -0.1143,-0.06985 -0.05292,-0.04445 -0.08467,-0.112184 -0.03175,-0.06773 -0.03175,-0.162983 z"
       id="text156-6-5-0-3-3-2-4"
       style="font-size:2.11667px;line-height:1.25;font-family:'DIN Condensed';-inkscape-font-specification:'DIN Condensed, ';text-align:center;text-anchor:middle;fill:#f2f2f2;stroke-width:0.264583"
       aria-label="TRIG" /><path
       d="m 85.061936,85.609703 v -1.303869 h -0.249767 v -0.2032 h 0.715435 v 0.2032 h -0.249767 v 1.303869 z m 0.77682,-1.303869 v 0.469901 h 0.122767 q 0.05715,0 0.09102,-0.01482 0.03387,-0.01693 0.05292,-0.04657 0.01693,-0.02963 0.02328,-0.07197 0.0064,-0.04445 0.0064,-0.1016 0,-0.05715 -0.0064,-0.09948 -0.0063,-0.04445 -0.0254,-0.0762 -0.04022,-0.05927 -0.152401,-0.05927 z m -0.2159,1.303869 v -1.507069 h 0.347133 q 0.381001,0 0.381001,0.442384 0,0.13335 -0.04233,0.226484 -0.04022,0.09313 -0.143934,0.150283 l 0.232834,0.687918 h -0.228601 l -0.201083,-0.643468 h -0.129117 v 0.643468 z m 0.908052,0 v -1.507069 h 0.2159 v 1.507069 z m 0.412752,-1.151468 q 0,-0.09102 0.03175,-0.160867 0.03175,-0.06985 0.08467,-0.116417 0.0508,-0.04445 0.1143,-0.06773 0.06562,-0.02328 0.131233,-0.02328 0.06562,0 0.129117,0.02328 0.06562,0.02328 0.118534,0.06773 0.0508,0.04657 0.08255,0.116417 0.03175,0.06985 0.03175,0.160867 v 0.0762 h -0.2159 v -0.0762 q 0,-0.07832 -0.04445,-0.114301 -0.04233,-0.0381 -0.101601,-0.0381 -0.05927,0 -0.103716,0.0381 -0.04233,0.03598 -0.04233,0.114301 v 0.795868 q 0,0.07832 0.04233,0.116416 0.04445,0.03598 0.103716,0.03598 0.05927,0 0.101601,-0.03598 0.04445,-0.0381 0.04445,-0.116416 V 84.970469 H 87.28021 v -0.190501 h 0.387351 v 0.474135 q 0,0.09525 -0.03175,0.162983 -0.03175,0.06773 -0.08255,0.112184 -0.05292,0.04657 -0.118534,0.06985 -0.0635,0.02328 -0.129117,0.02328 -0.06562,0 -0.131233,-0.02328 -0.0635,-0.02328 -0.1143,-0.06985 -0.05292,-0.04445 -0.08467,-0.112184 -0.03175,-0.06773 -0.03175,-0.162983 z"
       id="text156-6-5-0-3-3-2-4-6"
       style="font-size:2.11667px;line-height:1.25;font-family:'DIN Condensed';-inkscape-font-specification:'DIN Condensed, ';text-align:center;text-anchor:middle;fill:#f2f2f2;stroke-width:0.264583"
       aria-label="TRIG" /><path
       d="m 85.061936,112.06807 v -1.30387 h -0.249767 v -0.2032 h 0.715435 v 0.2032 h -0.249767 v 1.30387 z m 0.77682,-1.30387 v 0.4699 h 0.122767 q 0.05715,0 0.09102,-0.0148 0.03387,-0.0169 0.05292,-0.0466 0.01693,-0.0296 0.02328,-0.072 0.0064,-0.0445 0.0064,-0.1016 0,-0.0572 -0.0064,-0.0995 -0.0063,-0.0444 -0.0254,-0.0762 -0.04022,-0.0593 -0.152401,-0.0593 z m -0.2159,1.30387 V 110.561 h 0.347133 q 0.381001,0 0.381001,0.44238 0,0.13335 -0.04233,0.22649 -0.04022,0.0931 -0.143934,0.15028 l 0.232834,0.68792 h -0.228601 l -0.201083,-0.64347 h -0.129117 v 0.64347 z m 0.908052,0 V 110.561 h 0.2159 v 1.50707 z m 0.412752,-1.15147 q 0,-0.091 0.03175,-0.16087 0.03175,-0.0699 0.08467,-0.11641 0.0508,-0.0444 0.1143,-0.0677 0.06562,-0.0233 0.131233,-0.0233 0.06562,0 0.129117,0.0233 0.06562,0.0233 0.118534,0.0677 0.0508,0.0466 0.08255,0.11641 0.03175,0.0699 0.03175,0.16087 v 0.0762 h -0.2159 v -0.0762 q 0,-0.0783 -0.04445,-0.1143 -0.04233,-0.0381 -0.101601,-0.0381 -0.05927,0 -0.103716,0.0381 -0.04233,0.036 -0.04233,0.1143 v 0.79587 q 0,0.0783 0.04233,0.11642 0.04445,0.036 0.103716,0.036 0.05927,0 0.101601,-0.036 0.04445,-0.0381 0.04445,-0.11642 v -0.28363 H 87.28021 v -0.19051 h 0.387351 v 0.47414 q 0,0.0953 -0.03175,0.16298 -0.03175,0.0677 -0.08255,0.11219 -0.05292,0.0466 -0.118534,0.0699 -0.0635,0.0233 -0.129117,0.0233 -0.06562,0 -0.131233,-0.0233 -0.0635,-0.0233 -0.1143,-0.0699 -0.05292,-0.0444 -0.08467,-0.11219 -0.03175,-0.0677 -0.03175,-0.16298 z"
       id="text156-6-5-0-3-3-2-4-0"
       style="font-size:2.11667px;line-height:1.25;font-family:'DIN Condensed';-inkscape-font-specification:'DIN Condensed, ';text-align:center;text-anchor:middle;fill:#f2f2f2;stroke-width:0.264583"
       aria-label="TRIG" /><path
       d="m 83.268058,74.179695 v -2.2606 h 0.9652 v 0.3048 h -0.64135 v 0.6858 h 0.5588 v 0.3048 h -0.5588 v 0.9652 z m 1.184278,0 v -2.2606 h 0.32385 v 2.2606 z m 0.638176,0 v -2.2606 h 0.32385 v 1.93675 h 0.64135 v 0.32385 z m 1.15253,0 v -1.9558 h -0.37465 v -0.3048 h 1.07315 v 0.3048 h -0.37465 v 1.9558 z m 0.841377,0 v -2.2606 h 0.9652 v 0.3048 h -0.64135 v 0.663575 h 0.5588 v 0.3048 h -0.5588 v 0.663575 h 0.64135 v 0.32385 z m 1.498603,-1.9558 v 0.70485 h 0.18415 q 0.08572,0 0.136525,-0.02223 0.0508,-0.0254 0.07938,-0.06985 0.0254,-0.04445 0.03492,-0.10795 0.0095,-0.06667 0.0095,-0.1524 0,-0.08572 -0.0095,-0.149225 -0.0095,-0.06667 -0.0381,-0.1143 -0.06032,-0.0889 -0.2286,-0.0889 z m -0.32385,1.9558 v -2.2606 h 0.5207 q 0.5715,0 0.5715,0.663575 0,0.200025 -0.0635,0.339725 -0.06032,0.1397 -0.2159,0.225425 l 0.34925,1.031875 h -0.3429 l -0.301625,-0.9652 h -0.193675 v 0.9652 z"
       id="text156-6-5-0-3-3-2-8"
       style="font-size:3.175px;line-height:1.25;font-family:'DIN Condensed';-inkscape-font-specification:'DIN Condensed, ';text-align:center;text-anchor:middle;fill:#f2f2f2;stroke-width:0.264583"
       aria-label="FILTER" /><rect
       style="fill:#10f0d0;fill-opacity:0.497288;stroke:none;stroke-width:0.25;stroke-linejoin:round"
       id="rect1"
       width="9.1457891"
       height="4.3322158"
       x="81.750519"
       y="97.39463"
       ry="1.845203" /><path
       d="m 83.118836,100.63805 v -2.260604 h 0.479425 q 0.2794,0 0.422275,0.1524 0.14605,0.1524 0.14605,0.4318 v 1.057274 q 0,0.3175 -0.155575,0.4699 -0.1524,0.14923 -0.441325,0.14923 z m 0.32385,-1.955804 v 1.651004 h 0.149225 q 0.136525,0 0.193675,-0.0667 0.05715,-0.0699 0.05715,-0.2159 v -1.089024 q 0,-0.13335 -0.05398,-0.206375 -0.05397,-0.07302 -0.19685,-0.07302 z m 1.352552,0 v 0.70485 h 0.18415 q 0.08572,0 0.136525,-0.02223 0.0508,-0.0254 0.07937,-0.06985 0.0254,-0.04445 0.03493,-0.10795 0.0095,-0.06668 0.0095,-0.1524 0,-0.08572 -0.0095,-0.149225 -0.0095,-0.06668 -0.0381,-0.1143 -0.06033,-0.0889 -0.2286,-0.0889 z m -0.32385,1.955804 v -2.260604 h 0.5207 q 0.5715,0 0.5715,0.663575 0,0.200025 -0.0635,0.339725 -0.06033,0.1397 -0.2159,0.225425 l 0.34925,1.031879 h -0.3429 l -0.301625,-0.965204 h -0.193675 v 0.965204 z m 1.333502,-1.727204 q 0,-0.136525 0.04762,-0.2413 0.04762,-0.104775 0.127,-0.174625 0.0762,-0.06668 0.17145,-0.1016 0.09843,-0.03493 0.19685,-0.03493 0.09843,0 0.193675,0.03493 0.09843,0.03493 0.1778,0.1016 0.0762,0.06985 0.123825,0.174625 0.04762,0.104775 0.04762,0.2413 v 1.193804 q 0,0.14287 -0.04762,0.24447 -0.04762,0.1016 -0.123825,0.16828 -0.07937,0.0699 -0.1778,0.10477 -0.09525,0.0349 -0.193675,0.0349 -0.09842,0 -0.19685,-0.0349 -0.09525,-0.0349 -0.17145,-0.10477 -0.07938,-0.0667 -0.127,-0.16828 -0.04762,-0.1016 -0.04762,-0.24447 z m 0.32385,1.193804 q 0,0.11747 0.0635,0.17462 0.06668,0.054 0.155575,0.054 0.0889,0 0.1524,-0.054 0.06668,-0.0571 0.06668,-0.17462 v -1.193804 q 0,-0.117475 -0.06668,-0.17145 -0.0635,-0.05715 -0.1524,-0.05715 -0.0889,0 -0.155575,0.05715 -0.0635,0.05397 -0.0635,0.17145 z m 1.035052,0.5334 v -2.260604 h 0.31115 l 0.48895,1.362075 h 0.0063 v -1.362075 h 0.32385 v 2.260604 h -0.3048 l -0.4953,-1.358904 h -0.0064 v 1.358904 z m 1.422401,0 v -2.260604 h 0.9652 v 0.3048 h -0.64135 v 0.663575 h 0.5588 v 0.3048 h -0.5588 v 0.663579 h 0.64135 v 0.32385 z"
       id="text156-6-5-0-3-3-2-8-5"
       style="font-size:3.175px;line-height:1.25;font-family:'DIN Condensed';-inkscape-font-specification:'DIN Condensed, ';text-align:center;text-anchor:middle;fill:#f2f2f2;stroke-width:0.264583"
       aria-label="DRONE" /><path
       d="m 68.314355,97.3653 h -0.287866 v -0.06491 q 0,-0.09878 -0.04798,-0.169333 -0.04516,-0.07338 -0.155222,-0.07338 -0.05927,0 -0.09596,0.02258 -0.03669,0.02258 -0.05927,0.05644 -0.02258,0.03669 -0.03104,0.08467 -0.0085,0.04516 -0.0085,0.09596 0,0.05927 0.0028,0.09878 0.0056,0.03951 0.02258,0.07056 0.01693,0.03104 0.04798,0.05362 0.03387,0.02258 0.09031,0.04516 l 0.220134,0.08749 q 0.09596,0.03669 0.155222,0.08749 0.05927,0.04798 0.09313,0.112889 0.03104,0.06773 0.04233,0.155222 0.01129,0.08467 0.01129,0.194733 0,0.127 -0.0254,0.237067 -0.0254,0.107244 -0.08184,0.183444 -0.05927,0.07902 -0.155222,0.124178 -0.09596,0.04515 -0.234245,0.04515 -0.104422,0 -0.194733,-0.03669 -0.09031,-0.03669 -0.155222,-0.1016 -0.06491,-0.06491 -0.104422,-0.149578 -0.03669,-0.08749 -0.03669,-0.189089 v -0.107244 h 0.287867 v 0.09031 q 0,0.07902 0.04515,0.143933 0.04798,0.06209 0.158044,0.06209 0.07338,0 0.112889,-0.01976 0.04233,-0.02258 0.06491,-0.06209 0.02258,-0.03951 0.0254,-0.09313 0.0056,-0.05644 0.0056,-0.124177 0,-0.07902 -0.0056,-0.129822 -0.0056,-0.0508 -0.02258,-0.08185 -0.01976,-0.03104 -0.05362,-0.0508 -0.03104,-0.01976 -0.08467,-0.04233 l -0.206022,-0.08467 q -0.186267,-0.0762 -0.251178,-0.200377 -0.06209,-0.127 -0.06209,-0.316089 0,-0.112889 0.03105,-0.214489 0.03104,-0.1016 0.09313,-0.174977 0.05927,-0.07338 0.149578,-0.115711 0.09313,-0.04516 0.220133,-0.04516 0.107244,0 0.194733,0.03951 0.09031,0.03951 0.155222,0.104422 0.129822,0.135467 0.129822,0.310445 z m 0.403578,1.430865 v -1.738487 h -0.333022 v -0.270934 h 0.95391 v 0.270934 h -0.333022 v 1.738487 z m 1.016001,0 v -0.849488 l -0.395111,-1.159933 h 0.3048 l 0.231422,0.798689 h 0.0056 l 0.231422,-0.798689 h 0.3048 l -0.395111,1.159933 v 0.849488 z m 0.826912,0 v -2.009421 h 0.287866 v 1.721555 h 0.570089 v 0.287866 z m 1.044224,0 v -2.009421 h 0.857955 v 0.270934 h -0.570089 v 0.589844 h 0.496711 v 0.270933 h -0.496711 v 0.589844 h 0.570089 v 0.287866 z"
       id="text156-6-5-0-2"
       style="font-size:2.82222px;line-height:1.25;font-family:'DIN Condensed';-inkscape-font-specification:'DIN Condensed, ';text-align:center;text-anchor:middle;fill:#f2f2f2;stroke-width:0.264583"
       aria-label="STYLE" /><path
       d="m 38.858987,98.796165 v -1.738487 h -0.333022 v -0.270934 h 0.953911 v 0.270934 h -0.333022 v 1.738487 z m 1.016001,0 v -0.849488 l -0.39511,-1.159933 h 0.304799 l 0.231422,0.798689 h 0.0056 l 0.231422,-0.798689 h 0.3048 l -0.395111,1.159933 v 0.849488 z m 0.826912,0 v -2.009421 h 0.4318 q 0.118533,0 0.208844,0.03105 0.09031,0.03104 0.163689,0.110066 0.07338,0.07902 0.1016,0.186267 0.02822,0.104422 0.02822,0.285044 0,0.135467 -0.01693,0.2286 -0.01411,0.09313 -0.06491,0.174978 -0.05927,0.09878 -0.158045,0.155222 -0.09878,0.05362 -0.259644,0.05362 h -0.146755 v 0.784577 z m 0.287867,-1.738487 v 0.682977 h 0.138289 q 0.08749,0 0.135466,-0.0254 0.04798,-0.0254 0.07056,-0.07056 0.02258,-0.04233 0.0254,-0.104422 0.0056,-0.06209 0.0056,-0.138289 0,-0.07055 -0.0028,-0.132644 -0.0028,-0.06491 -0.0254,-0.112889 -0.02258,-0.04798 -0.06773,-0.07338 -0.04516,-0.0254 -0.129823,-0.0254 z m 0.860776,1.738487 v -2.009421 h 0.857955 v 0.270934 h -0.570089 v 0.589844 h 0.496711 v 0.270933 h -0.496711 v 0.589844 h 0.570089 v 0.287866 z"
       id="text156-6-5-0"
       style="font-size:2.82222px;line-height:1.25;font-family:'DIN Condensed';-inkscape-font-specification:'DIN Condensed, ';text-align:center;text-anchor:middle;fill:#f2f2f2;stroke-width:0.264583"
       aria-label="TYPE" /><path
       d="m 53.526444,97.3653 h -0.287866 v -0.06491 q 0,-0.09878 -0.04798,-0.169333 -0.04516,-0.07338 -0.155222,-0.07338 -0.05927,0 -0.09596,0.02258 -0.03669,0.02258 -0.05927,0.05644 -0.02258,0.03669 -0.03104,0.08467 -0.0085,0.04516 -0.0085,0.09596 0,0.05927 0.0028,0.09878 0.0056,0.03951 0.02258,0.07056 0.01693,0.03104 0.04798,0.05362 0.03387,0.02258 0.09031,0.04516 l 0.220133,0.08749 q 0.09596,0.03669 0.155223,0.08749 0.05927,0.04798 0.09313,0.112889 0.03104,0.06773 0.04233,0.155222 0.01129,0.08467 0.01129,0.194733 0,0.127 -0.0254,0.237067 -0.0254,0.107244 -0.08184,0.183444 -0.05927,0.07902 -0.155222,0.124178 -0.09596,0.04515 -0.234245,0.04515 -0.104422,0 -0.194733,-0.03669 -0.09031,-0.03669 -0.155222,-0.1016 -0.06491,-0.06491 -0.104422,-0.149578 -0.03669,-0.08749 -0.03669,-0.189089 v -0.107244 h 0.287866 v 0.09031 q 0,0.07902 0.04516,0.143933 0.04798,0.06209 0.158044,0.06209 0.07338,0 0.112889,-0.01976 0.04233,-0.02258 0.06491,-0.06209 0.02258,-0.03951 0.0254,-0.09313 0.0056,-0.05644 0.0056,-0.124177 0,-0.07902 -0.0056,-0.129822 -0.0056,-0.0508 -0.02258,-0.08185 -0.01975,-0.03104 -0.05362,-0.0508 -0.03104,-0.01976 -0.08467,-0.04233 l -0.206022,-0.08467 q -0.186267,-0.0762 -0.251178,-0.200377 -0.06209,-0.127 -0.06209,-0.316089 0,-0.112889 0.03104,-0.214489 0.03104,-0.1016 0.09313,-0.174977 0.05927,-0.07338 0.149577,-0.115711 0.09313,-0.04516 0.220134,-0.04516 0.107244,0 0.194733,0.03951 0.09031,0.03951 0.155222,0.104422 0.129822,0.135467 0.129822,0.310445 z m 1.128888,0.857954 v 0.124178 q 0,0.09313 -0.03669,0.1778 -0.03387,0.08184 -0.09596,0.146755 -0.06209,0.06491 -0.146755,0.104423 -0.08185,0.03669 -0.1778,0.03669 -0.08185,0 -0.166511,-0.02258 -0.08467,-0.02258 -0.1524,-0.07902 -0.06773,-0.05644 -0.112889,-0.143934 -0.04233,-0.09031 -0.04233,-0.2286 v -1.10631 q 0,-0.09878 0.03387,-0.183444 0.03387,-0.08467 0.09596,-0.146756 0.06209,-0.06209 0.146755,-0.09596 0.08749,-0.03669 0.191911,-0.03669 0.2032,0 0.3302,0.132644 0.06209,0.06491 0.09596,0.155223 0.03669,0.08749 0.03669,0.191911 v 0.112888 h -0.287866 v -0.09595 q 0,-0.08467 -0.04798,-0.146756 -0.04798,-0.06209 -0.129822,-0.06209 -0.107244,0 -0.143933,0.06773 -0.03387,0.06491 -0.03387,0.166511 v 1.027288 q 0,0.08749 0.03669,0.146755 0.03951,0.05927 0.138289,0.05927 0.02822,0 0.05927,-0.0085 0.03387,-0.01129 0.06209,-0.03387 0.0254,-0.02258 0.04233,-0.06209 0.01693,-0.03951 0.01693,-0.09878 V 98.22321 Z M 55.470953,98.093432 55.329842,97.3653 h -0.0056 l -0.141111,0.728132 z m -0.7112,0.702733 0.448733,-2.009421 h 0.239889 l 0.448733,2.009421 h -0.287866 l -0.08467,-0.4318 h -0.392289 l -0.08467,0.4318 z m 1.278465,0 v -2.009421 h 0.287866 v 1.721555 h 0.570089 v 0.287866 z m 1.044224,0 v -2.009421 h 0.857955 v 0.270934 h -0.570089 v 0.589844 h 0.496711 v 0.270933 h -0.496711 v 0.589844 h 0.570089 v 0.287866 z"
       id="text156-6-5-0-1"
       style="font-size:2.82222px;line-height:1.25;font-family:'DIN Condensed';-inkscape-font-specification:'DIN Condensed, ';text-align:center;text-anchor:middle;fill:#f2f2f2;stroke-width:0.264583"
       aria-label="SCALE" /><path
       d="m 38.907343,112.62938 h -0.287867 v -0.0649 q 0,-0.0988 -0.04798,-0.16933 -0.04516,-0.0734 -0.155222,-0.0734 -0.05927,0 -0.09596,0.0226 -0.03669,0.0226 -0.05927,0.0564 -0.02258,0.0367 -0.03104,0.0847 -0.0085,0.0452 -0.0085,0.096 0,0.0593 0.0028,0.0988 0.0056,0.0395 0.02258,0.0706 0.01693,0.031 0.04798,0.0536 0.03387,0.0226 0.09031,0.0451 l 0.220133,0.0875 q 0.09596,0.0367 0.155222,0.0875 0.05927,0.048 0.09313,0.11289 0.03104,0.0677 0.04233,0.15522 0.01129,0.0847 0.01129,0.19474 0,0.127 -0.0254,0.23706 -0.0254,0.10725 -0.08185,0.18345 -0.05927,0.079 -0.155222,0.12418 -0.09595,0.0451 -0.234244,0.0451 -0.104422,0 -0.194733,-0.0367 -0.09031,-0.0367 -0.155222,-0.1016 -0.06491,-0.0649 -0.104423,-0.14958 -0.03669,-0.0875 -0.03669,-0.18908 v -0.10725 h 0.287866 v 0.0903 q 0,0.079 0.04516,0.14394 0.04798,0.0621 0.158045,0.0621 0.07338,0 0.112889,-0.0198 0.04233,-0.0226 0.06491,-0.0621 0.02258,-0.0395 0.0254,-0.0931 0.0056,-0.0564 0.0056,-0.12418 0,-0.079 -0.0056,-0.12982 -0.0056,-0.0508 -0.02258,-0.0819 -0.01976,-0.031 -0.05362,-0.0508 -0.03104,-0.0197 -0.08467,-0.0423 l -0.206022,-0.0847 q -0.186266,-0.0762 -0.251178,-0.20038 -0.06209,-0.127 -0.06209,-0.31608 0,-0.11289 0.03104,-0.21449 0.03104,-0.1016 0.09313,-0.17498 0.05927,-0.0734 0.149578,-0.11571 0.09313,-0.0452 0.220133,-0.0452 0.107244,0 0.194733,0.0395 0.09031,0.0395 0.155222,0.10443 0.129823,0.13546 0.129823,0.31044 z m 0.214489,1.43087 v -2.00942 h 0.431799 q 0.118534,0 0.208845,0.031 0.09031,0.0311 0.163688,0.11007 0.07338,0.079 0.1016,0.18626 0.02822,0.10443 0.02822,0.28505 0,0.13546 -0.01693,0.2286 -0.01411,0.0931 -0.06491,0.17498 -0.05927,0.0988 -0.158044,0.15522 -0.09878,0.0536 -0.259645,0.0536 H 39.4097 v 0.78458 z m 0.287866,-1.73849 v 0.68298 h 0.138289 q 0.08749,0 0.135466,-0.0254 0.04798,-0.0254 0.07056,-0.0706 0.02258,-0.0423 0.0254,-0.10442 0.0056,-0.0621 0.0056,-0.13829 0,-0.0705 -0.0028,-0.13264 -0.0028,-0.0649 -0.0254,-0.11289 -0.02258,-0.048 -0.06773,-0.0734 -0.04516,-0.0254 -0.129822,-0.0254 z m 0.860776,1.73849 v -2.00942 h 0.857955 v 0.27093 H 40.55834 v 0.58984 h 0.496711 v 0.27094 H 40.55834 v 0.58984 h 0.570089 v 0.28787 z m 1.044224,0 v -2.00942 h 0.857955 v 0.27093 h -0.570089 v 0.58984 h 0.496711 v 0.27094 h -0.496711 v 0.58984 h 0.570089 v 0.28787 z m 1.044224,0 v -2.00942 h 0.426155 q 0.248355,0 0.375355,0.13546 0.129822,0.13547 0.129822,0.38383 v 0.93979 q 0,0.28223 -0.138289,0.41769 -0.135466,0.13265 -0.392288,0.13265 z m 0.287866,-1.73849 v 1.46755 h 0.132644 q 0.121356,0 0.172156,-0.0593 0.0508,-0.0621 0.0508,-0.19191 v -0.96802 q 0,-0.11854 -0.04798,-0.18345 -0.04798,-0.0649 -0.174978,-0.0649 z"
       id="text156-6-5"
       style="font-size:2.82222px;line-height:1.25;font-family:'DIN Condensed';-inkscape-font-specification:'DIN Condensed, ';text-align:center;text-anchor:middle;fill:#f2f2f2;stroke-width:0.264583"
       aria-label="SPEED" /><path
       d="m 66.582393,112.52496 q 0,-0.12136 0.04233,-0.21449 0.04233,-0.0931 0.112889,-0.15522 0.06773,-0.0593 0.1524,-0.0903 0.08749,-0.0311 0.174978,-0.0311 0.08749,0 0.172155,0.0311 0.08749,0.031 0.158044,0.0903 0.06773,0.0621 0.110067,0.15522 0.04233,0.0931 0.04233,0.21449 v 1.06115 q 0,0.127 -0.04233,0.21732 -0.04233,0.0903 -0.110067,0.14957 -0.07055,0.0621 -0.158044,0.0931 -0.08467,0.031 -0.172155,0.031 -0.08749,0 -0.174978,-0.031 -0.08467,-0.031 -0.1524,-0.0931 -0.07056,-0.0593 -0.112889,-0.14957 -0.04233,-0.0903 -0.04233,-0.21732 z m 0.287866,1.06115 q 0,0.10443 0.05644,0.15523 0.05927,0.048 0.138289,0.048 0.07902,0 0.135466,-0.048 0.05927,-0.0508 0.05927,-0.15523 v -1.06115 q 0,-0.10442 -0.05927,-0.1524 -0.05644,-0.0508 -0.135466,-0.0508 -0.07902,0 -0.138289,0.0508 -0.05644,0.048 -0.05644,0.1524 z m 0.931335,0.47414 v -2.00942 h 0.857955 v 0.27093 H 68.08946 v 0.6096 h 0.496711 v 0.27093 H 68.08946 v 0.85796 z m 1.044223,0 v -2.00942 h 0.857955 v 0.27093 h -0.570088 v 0.6096 h 0.496711 v 0.27093 h -0.496711 v 0.85796 z m 1.975557,-1.43087 h -0.287867 v -0.0649 q 0,-0.0988 -0.04798,-0.16933 -0.04516,-0.0734 -0.155222,-0.0734 -0.05927,0 -0.09596,0.0226 -0.03669,0.0226 -0.05927,0.0564 -0.02258,0.0367 -0.03104,0.0847 -0.0085,0.0452 -0.0085,0.096 0,0.0593 0.0028,0.0988 0.0056,0.0395 0.02258,0.0706 0.01693,0.031 0.04798,0.0536 0.03387,0.0226 0.09031,0.0451 l 0.220133,0.0875 q 0.09596,0.0367 0.155222,0.0875 0.05927,0.048 0.09313,0.11289 0.03104,0.0677 0.04233,0.15522 0.01129,0.0847 0.01129,0.19474 0,0.127 -0.0254,0.23706 -0.0254,0.10725 -0.08185,0.18345 -0.05927,0.079 -0.155222,0.12418 -0.09596,0.0451 -0.234244,0.0451 -0.104422,0 -0.194733,-0.0367 -0.09031,-0.0367 -0.155222,-0.1016 -0.06491,-0.0649 -0.104422,-0.14958 -0.03669,-0.0875 -0.03669,-0.18908 v -0.10725 h 0.287866 v 0.0903 q 0,0.079 0.04516,0.14394 0.04798,0.0621 0.158044,0.0621 0.07338,0 0.112889,-0.0198 0.04233,-0.0226 0.06491,-0.0621 0.02258,-0.0395 0.0254,-0.0931 0.0056,-0.0564 0.0056,-0.12418 0,-0.079 -0.0056,-0.12982 -0.0056,-0.0508 -0.02258,-0.0819 -0.01976,-0.031 -0.05362,-0.0508 -0.03104,-0.0197 -0.08467,-0.0423 l -0.206022,-0.0847 q -0.186266,-0.0762 -0.251177,-0.20038 -0.06209,-0.127 -0.06209,-0.31608 0,-0.11289 0.03104,-0.21449 0.03104,-0.1016 0.09313,-0.17498 0.05927,-0.0734 0.149577,-0.11571 0.09313,-0.0452 0.220133,-0.0452 0.107245,0 0.194734,0.0395 0.09031,0.0395 0.155222,0.10443 0.129822,0.13546 0.129822,0.31044 z m 0.214489,1.43087 v -2.00942 h 0.857955 v 0.27093 h -0.570089 v 0.58984 h 0.496711 v 0.27094 h -0.496711 v 0.58984 h 0.570089 v 0.28787 z m 1.233313,0 v -1.73849 h -0.333022 v -0.27093 h 0.95391 v 0.27093 h -0.333022 v 1.73849 z"
       id="text156-6-5-1"
       style="font-size:2.82222px;line-height:1.25;font-family:'DIN Condensed';-inkscape-font-specification:'DIN Condensed, ';text-align:center;text-anchor:middle;fill:#f2f2f2;stroke-width:0.264583"
       aria-label="OFFSET" /><path
       style="fill:none;stroke:#ececec;stroke-width:0.264583px;stroke-linecap:butt;stroke-linejoin:miter;stroke-opacity:1"
       d="m 43.929416,101.71833 2.201045,-0.45856"
       id="path163" /><path
       style="fill:none;stroke:#ececec;stroke-width:0.264583px;stroke-linecap:butt;stroke-linejoin:miter;stroke-opacity:1"
       d="m 44.030253,105.42865 c 0,0 0.54845,-0.79837 0.968044,-0.80486 0.436021,-0.007 1.031327,0.80486 1.031327,0.80486"
       id="path164"
       sodipodi:nodetypes="cac" /><path
       style="fill:none;stroke:#ececec;stroke-width:0.264583px;stroke-linecap:butt;stroke-linejoin:miter;stroke-opacity:1"
       d="m 44.030253,109.01696 c 0,0 0.337048,-0.67869 0.654213,-0.69207 0.345925,-0.0146 0.428543,0.70441 0.774555,0.69207 0.321214,-0.0115 0.67144,-0.69207 0.67144,-0.69207"
       id="path164-5"
       sodipodi:nodetypes="caac" /><path
       d="m 74.436575,102.71741 -0.105833,-0.5461 h -0.0042 l -0.105833,0.5461 z m -0.533401,0.52705 0.336551,-1.50707 h 0.179917 l 0.33655,1.50707 h -0.2159 l -0.0635,-0.32385 h -0.294217 l -0.0635,0.32385 z m 0.958851,0 v -1.50707 h 0.2159 v 1.29117 h 0.427568 v 0.2159 z m 0.77047,-1.15147 q 0,-0.091 0.03175,-0.16087 0.03175,-0.0699 0.08467,-0.11641 0.0508,-0.0444 0.114301,-0.0677 0.06562,-0.0233 0.131233,-0.0233 0.06562,0 0.129117,0.0233 0.06562,0.0233 0.118534,0.0677 0.0508,0.0466 0.08255,0.11641 0.03175,0.0699 0.03175,0.16087 v 0.0762 h -0.215901 v -0.0762 q 0,-0.0783 -0.04445,-0.1143 -0.04233,-0.0381 -0.1016,-0.0381 -0.05927,0 -0.103717,0.0381 -0.04233,0.036 -0.04233,0.1143 v 0.79587 q 0,0.0783 0.04233,0.11642 0.04445,0.036 0.103717,0.036 0.05927,0 0.1016,-0.036 0.04445,-0.0381 0.04445,-0.11642 v -0.28364 h -0.17145 v -0.1905 H 76.3564 v 0.47414 q 0,0.0952 -0.03175,0.16298 -0.03175,0.0677 -0.08255,0.11219 -0.05292,0.0466 -0.118534,0.0699 -0.0635,0.0233 -0.129117,0.0233 -0.06562,0 -0.131233,-0.0233 -0.0635,-0.0233 -0.114301,-0.0699 -0.05292,-0.0444 -0.08467,-0.11219 -0.03175,-0.0677 -0.03175,-0.16298 z"
       id="text166"
       style="font-size:2.11667px;line-height:1.25;font-family:'DIN Condensed';-inkscape-font-specification:'DIN Condensed, ';text-align:center;text-anchor:middle;fill:#e6e6e6;stroke-width:0.264583"
       aria-label="ALG" /><path
       d="m 59.188115,100.65421 v 0.2032 h -0.427567 v 0.40641 q 0.02963,-0.0296 0.0762,-0.0487 0.04657,-0.0212 0.103717,-0.0212 0.110067,0 0.1778,0.0677 0.06985,0.0656 0.06985,0.19897 v 0.38946 q 0,0.0762 -0.02752,0.13547 -0.0254,0.0593 -0.06985,0.1016 -0.04445,0.0423 -0.103716,0.0656 -0.05715,0.0212 -0.120651,0.0212 -0.0635,0 -0.122767,-0.0212 -0.05715,-0.0233 -0.1016,-0.0656 -0.04445,-0.0423 -0.07197,-0.1016 -0.0254,-0.0593 -0.0254,-0.13547 v -0.0635 h 0.2159 v 0.055 q 0,0.055 0.02963,0.0868 0.03175,0.0296 0.08043,0.0296 0.04868,0 0.07408,-0.0296 0.02752,-0.0296 0.02752,-0.0825 v -0.35348 q 0,-0.0444 -0.02963,-0.0762 -0.02752,-0.0317 -0.07197,-0.0317 -0.02752,0 -0.04657,0.0106 -0.01905,0.008 -0.03175,0.0212 -0.0127,0.0127 -0.01905,0.0275 -0.01058,0.019 -0.0127,0.0233 h -0.1905 v -0.81281 z m 0.905934,0 -0.309033,1.50707 h -0.190501 l -0.306917,-1.50707 h 0.2286 l 0.171451,1.05199 h 0.0042 l 0.173567,-1.05199 z"
       id="text166-28"
       style="font-size:2.11667px;line-height:1.25;font-family:'DIN Condensed';-inkscape-font-specification:'DIN Condensed, ';text-align:center;text-anchor:middle;fill:#e6e6e6;stroke-width:0.264583"
       aria-label="5V" /><path
       d="m 58.388014,108.9678 v -0.34078 h -0.450851 v -0.16934 h 0.450851 v -0.34078 h 0.169333 v 0.34078 h 0.450851 v 0.16934 h -0.450851 v 0.34078 z m -0.450851,0.22013 v -0.16933 h 1.071035 v 0.16933 z m 1.885954,-1.50707 v 0.2032 h -0.427568 v 0.4064 q 0.02963,-0.0296 0.0762,-0.0487 0.04657,-0.0212 0.103717,-0.0212 0.110067,0 0.1778,0.0677 0.06985,0.0656 0.06985,0.19897 v 0.38946 q 0,0.0762 -0.02752,0.13547 -0.0254,0.0593 -0.06985,0.1016 -0.04445,0.0423 -0.103717,0.0656 -0.05715,0.0212 -0.12065,0.0212 -0.0635,0 -0.122767,-0.0212 -0.05715,-0.0233 -0.1016,-0.0656 -0.04445,-0.0423 -0.07197,-0.1016 -0.0254,-0.0593 -0.0254,-0.13547 v -0.0635 h 0.2159 v 0.055 q 0,0.055 0.02963,0.0868 0.03175,0.0296 0.08043,0.0296 0.04868,0 0.07408,-0.0296 0.02752,-0.0296 0.02752,-0.0825 v -0.35348 q 0,-0.0444 -0.02963,-0.0762 -0.02752,-0.0318 -0.07197,-0.0318 -0.02752,0 -0.04657,0.0106 -0.01905,0.008 -0.03175,0.0212 -0.0127,0.0127 -0.01905,0.0275 -0.01058,0.019 -0.0127,0.0233 h -0.1905 v -0.81281 z m 0.905934,0 -0.309034,1.50707 h -0.1905 l -0.306918,-1.50707 H 60.1512 l 0.17145,1.05199 h 0.0042 l 0.173567,-1.05199 z"
       id="text166-28-9"
       style="font-size:2.11667px;line-height:1.25;font-family:'DIN Condensed';-inkscape-font-specification:'DIN Condensed, ';text-align:center;text-anchor:middle;fill:#e6e6e6;stroke-width:0.264583"
       aria-label="5V" /><path
       d="m 58.407064,105.77339 v -1.27847 l -0.2159,0.15875 v -0.2286 l 0.2159,-0.15875 h 0.215901 v 1.50707 z m 0.531284,-1.19592 q 0,-0.0762 0.0254,-0.13547 0.02752,-0.0593 0.07197,-0.1016 0.04445,-0.0423 0.1016,-0.0635 0.05927,-0.0233 0.122767,-0.0233 0.0635,0 0.12065,0.0233 0.05927,0.0212 0.103717,0.0635 0.04445,0.0423 0.06985,0.1016 0.02752,0.0593 0.02752,0.13547 v 0.88477 q 0,0.0762 -0.02752,0.13547 -0.0254,0.0593 -0.06985,0.1016 -0.04445,0.0423 -0.103717,0.0656 -0.05715,0.0212 -0.12065,0.0212 -0.0635,0 -0.122767,-0.0212 -0.05715,-0.0233 -0.1016,-0.0656 -0.04445,-0.0423 -0.07197,-0.1016 -0.0254,-0.0593 -0.0254,-0.13547 z m 0.2159,0.88477 q 0,0.0466 0.02963,0.0783 0.02963,0.0296 0.0762,0.0296 0.04657,0 0.0762,-0.0296 0.02963,-0.0318 0.02963,-0.0783 v -0.88477 q 0,-0.0466 -0.02963,-0.0762 -0.02963,-0.0318 -0.0762,-0.0318 -0.04657,0 -0.0762,0.0318 -0.02963,0.0296 -0.02963,0.0762 z m 1.333502,-1.19592 -0.309034,1.50707 h -0.1905 l -0.306918,-1.50707 h 0.228601 l 0.17145,1.05199 h 0.0042 l 0.173567,-1.05199 z"
       id="text166-28-9-8"
       style="font-size:2.11667px;line-height:1.25;font-family:'DIN Condensed';-inkscape-font-specification:'DIN Condensed, ';text-align:center;text-anchor:middle;fill:#e6e6e6;stroke-width:0.264583"
       aria-label="10V" /><path
       d="m 74.000541,108.19142 v -1.50707 h 0.643468 v 0.2032 h -0.427567 v 0.44238 h 0.372534 v 0.20321 h -0.372534 v 0.44238 h 0.427567 v 0.2159 z m 1.481671,-1.50707 v 1.1684 q 0,0.0741 -0.02752,0.13759 -0.0254,0.0614 -0.07408,0.11006 -0.04868,0.0487 -0.112184,0.0762 -0.0635,0.0275 -0.135467,0.0275 -0.07197,0 -0.135466,-0.0275 -0.06138,-0.0275 -0.110067,-0.0762 -0.04868,-0.0487 -0.0762,-0.11006 -0.02752,-0.0635 -0.02752,-0.13759 v -1.1684 h 0.2159 v 1.14724 q 0,0.0804 0.0381,0.11853 0.0381,0.0381 0.09525,0.0381 0.05715,0 0.09525,-0.0381 0.0381,-0.0381 0.0381,-0.11853 v -1.14724 z m 0.889003,1.07739 v 0.0931 q 0,0.0699 -0.02752,0.13335 -0.0254,0.0614 -0.07197,0.11007 -0.04657,0.0487 -0.110067,0.0783 -0.06138,0.0275 -0.13335,0.0275 -0.06138,0 -0.124883,-0.0169 -0.0635,-0.0169 -0.114301,-0.0593 -0.0508,-0.0423 -0.08467,-0.10795 -0.03175,-0.0677 -0.03175,-0.17145 v -0.82974 q 0,-0.0741 0.0254,-0.13758 0.0254,-0.0635 0.07197,-0.11007 0.04657,-0.0466 0.110067,-0.072 0.06562,-0.0275 0.143934,-0.0275 0.1524,0 0.24765,0.0995 0.04657,0.0487 0.07197,0.11642 0.02752,0.0656 0.02752,0.14393 v 0.0847 h -0.215901 v -0.072 q 0,-0.0635 -0.03598,-0.11006 -0.03598,-0.0466 -0.09737,-0.0466 -0.08043,0 -0.10795,0.0508 -0.0254,0.0487 -0.0254,0.12488 v 0.77047 q 0,0.0656 0.02752,0.11007 0.02963,0.0444 0.103716,0.0444 0.02117,0 0.04445,-0.006 0.0254,-0.008 0.04657,-0.0254 0.01905,-0.0169 0.03175,-0.0466 0.0127,-0.0296 0.0127,-0.0741 v -0.0741 z"
       id="text166-2"
       style="font-size:2.11667px;line-height:1.25;font-family:'DIN Condensed';-inkscape-font-specification:'DIN Condensed, ';text-align:center;text-anchor:middle;fill:#e6e6e6;stroke-width:0.264583"
       aria-label="EUC" /><path
       d="m 52.264878,114.06023 v -2.00942 h 0.287867 v 2.00942 z m 0.555979,0 v -2.00942 h 0.276578 l 0.434622,1.21073 h 0.0056 v -1.21073 h 0.287867 v 2.00942 H 53.55459 l -0.440266,-1.20791 h -0.0056 v 1.20791 z m 2.240844,-2.00942 -0.412044,2.00942 h -0.254 l -0.409222,-2.00942 h 0.3048 l 0.228599,1.40264 h 0.0056 l 0.231422,-1.40264 z m 0.172154,2.00942 v -2.00942 h 0.857955 v 0.27093 h -0.570088 v 0.58984 h 0.49671 v 0.27094 h -0.49671 v 0.58984 h 0.570088 v 0.28787 z m 1.33209,-1.73849 v 0.62653 h 0.163689 q 0.0762,0 0.121356,-0.0197 0.04515,-0.0226 0.07055,-0.0621 0.02258,-0.0395 0.03104,-0.096 0.0085,-0.0593 0.0085,-0.13546 0,-0.0762 -0.0085,-0.13265 -0.0085,-0.0593 -0.03387,-0.1016 -0.05362,-0.079 -0.2032,-0.079 z m -0.287866,1.73849 v -2.00942 h 0.462844 q 0.508,0 0.508,0.58984 0,0.1778 -0.05644,0.30198 -0.05362,0.12417 -0.191911,0.20037 l 0.310444,0.91723 h -0.304799 l -0.268111,-0.85796 H 56.56595 v 0.85796 z m 1.340557,0 v -1.73849 h -0.333022 v -0.27093 h 0.95391 v 0.27093 h -0.333022 v 1.73849 z"
       id="text156-6-5-1-7"
       style="font-size:2.82222px;line-height:1.25;font-family:'DIN Condensed';-inkscape-font-specification:'DIN Condensed, ';text-align:center;text-anchor:middle;fill:#f2f2f2;stroke-width:0.264583"
       aria-label="INVERT" /></g></svg>
